<svg xmlns="http://www.w3.org/2000/svg" viewBox="0 0 284.88 284.88"><defs><style>.cls-1{fill:#6dc2a9;}</style></defs><title>Asset 8</title><g id="Layer_2" data-name="Layer 2"><g id="Layer_1-2" data-name="Layer 1"><path class="cls-1" d="M132.69,198.71H67.3v18.83H85.71q27.85,0,55.7,0c.73,0,.95-.17.94-.93q-.05-8.57,0-17.15c0-.62-.18-.79-.79-.78-3,0-5.91,0-8.87,0m61.7-70H90.32V71.92H194.39Zm-39.7,4.38q21.51,0,43,0c.73,0,.94-.17.94-.93q0-16.6,0-33.21c0-2.05.08-4.1.08-6.15s-.08-3.88-.08-5.82q0-9.38,0-18.77c0-.63-.14-.88-.81-.83s-1.51,0-2.27,0H87.08c-1,0-1,0-1,1V91.77q0,19.9,0,39.8v1.51h68.65M217.4,208.4a9.35,9.35,0,1,0-18.69-.29,9.35,9.35,0,0,0,18.69.29m18.78,18.69a9.16,9.16,0,0,1-9.2,9.16H57.77a9.15,9.15,0,0,1-9.2-9.15c0-1.78.08-3.56.08-5.34,0-10.8,0-21.6-.12-32.4a9.31,9.31,0,0,1,9-9.35q17.74,0,35.48,0c1.91,0,3.83.08,5.74.08s3.56-.07,5.34-.08c.5,0,.68-.14.68-.66,0-2.54,0-5.07,0-7.61,0-.91.21-1.12,1.25-1.12h17.58v-.91q0-8.43,0-16.86c0-1.06,0-1.06-1.09-1.06h-3.08l-42.59,0A9.34,9.34,0,0,1,67.43,144a6.9,6.9,0,0,1-.09-1.24q0-18.11,0-36.22c0-16,0-32,0-47.94a9.54,9.54,0,0,1,3.43-7.88,8.49,8.49,0,0,1,5.52-2.06H208.44a9.19,9.19,0,0,1,9,8.94c0,5.86,0,11.73,0,17.59v58.56c0,3,0,6,0,8.94a9.31,9.31,0,0,1-8.49,9.07c-.49,0-1,.05-1.46.05H185.82c-8,0-16,.05-24,.06-.68,0-.86.2-.86.87,0,5.62,0,11.24,0,16.86,0,1,0,1,1,1h17.84V180h28.6c2,0,4,.09,6,.09,4.2,0,8.4-.07,12.6-.08a9.15,9.15,0,0,1,8.85,7.07,9.74,9.74,0,0,1,.24,2.1q0,19,0,37.9m48.7-84.65A142.44,142.44,0,1,0,142.44,284.88,142.44,142.44,0,0,0,284.88,142.44"/></g></g></svg>