<svg xmlns="http://www.w3.org/2000/svg" viewBox="0 0 284.88 284.88"><defs><style>.cls-1{fill:#6dc2a9;}</style></defs><title>Asset 6</title><g id="Layer_2" data-name="Layer 2"><g id="Layer_1-2" data-name="Layer 1"><path class="cls-1" d="M21.9,184.65,3.13,172.27q.34,1.58.71,3.14l18.66,12.31H95.82l.81-1.23,1.87,1.23h3.65v2h-.56l20.19,13.31h79.65v2H121.17L97.89,189.76h-76L4.57,178.34Q5,180,5.46,181.6l17,11.24H95.82l.81-1.23,1.87,1.23h3.65v2h-.56l20.19,13.31h79.65v2H121.17L97.89,194.88h-76L6.37,184.64q.53,1.71,1.1,3.4l15,9.92H95.82l.81-1.23L98.5,198h3.65v2h-.56l20.19,13.31h79.65v2H121.17L97.89,200h-76L8.58,191.22q.65,1.79,1.35,3.56l12.58,8.3h79.65v2H21.9l-10.59-7,.05.13.41.94c.36.82.72,1.64,1.09,2.45l.13.27,9.53,6.28h79.65v2H21.9l-7.21-4.76.14.28q.65,1.31,1.33,2.61l.31.59.32.58,5.73,3.78h79.65v2H21.9l-3-2c.31.55.63,1.1.95,1.64l.13.21q.93,1.56,1.9,3.1a143.11,143.11,0,0,0,23.73,28.56h0l1.62,1.48q1,.87,1.93,1.72a142.78,142.78,0,0,0,24,16.83h0a141.81,141.81,0,0,0,15.35,7.38l.39.16,2.37.93.44.17q5,1.91,10.2,3.45l.73.22,2.09.58,1,.27,2,.52,1.06.26,2,.48.9.2a143.4,143.4,0,0,0,56.36,1h0q2.67-.49,5.31-1.08l.57-.12,2.17-.51.92-.23,2.12-.55.9-.24,2.16-.61.67-.2q5.27-1.56,10.36-3.51l.31-.12,2.43-1,.35-.14,2.49-1h0a142.52,142.52,0,0,0,37.53-23.79l1.09-1,1.57-1.43h0a143.13,143.13,0,0,0,24-28.92h0c.48-.76.94-1.53,1.41-2.31h-39.2l-24-15.83H121.17L97.89,184.65Zm.31-5.09L2,166.21q.27,1.63.58,3.24l19.95,13.16H95.82l.81-1.23,1.87,1.23h3.65v2h-.56L121.78,198h78.5l.5-.76,25.15,16.59h39.79c.36-.62.73-1.24,1.08-1.87l.17-.3.49-.91H225.33l-24-15.82H121.17L97.93,179.55ZM236.92,97l-17.46-5,10.72,14.9Zm7.14,9.91L254.27,92,237.4,97ZM47,97,29.55,92l10.72,14.9Zm7.13,9.91L64.35,92,47.48,97ZM142,97l-17.46-5,10.72,14.9Zm7.14,9.91L159.31,92l-16.87,5ZM129.76,76.29h3.09V73.19h-3.09Zm24.4-3.09h-3.09v3.09h3.09Zm47.27,91h-80L96.07,147.44h80Zm-11.52-21.76H95q0-12.31.11-24.63c.1-10,4.44-17.78,11.69-22.07.2-.12.4-.25.61-.37v0q.92-.51,1.9-.95v0c.32-.14.64-.27,1-.4l.29-.12c.73-.28,1.5-.53,2.27-.75l.16,0c.66-.18,1.33-.35,2-.49v0c.62-.13,1.26-.22,1.9-.31v0l.76-.08.84-.09c.8-.08,1.61-.13,2.45-.14h3.66c-.5-.42-1-.83-1.47-1.28h0a23.17,23.17,0,0,1-6.94-15.51h.49a3.84,3.84,0,0,0,3.83-3.83V68h10.79a39.24,39.24,0,0,0,7.56-.67h1.39A2.52,2.52,0,0,0,142,68H163.4v3.37a3.84,3.84,0,0,0,3.83,3.83h.49a23.15,23.15,0,0,1-7,15.57h0c-.45.43-.93.83-1.41,1.23h4.44c.8,0,1.58.05,2.34.13,12.06.94,20.54,8.12,23,19.2,0,.13.06.26.09.4.08.4.16.82.22,1.23s.17,1.13.24,1.7c0,.16,0,.33.05.49.09.94.15,1.89.16,2.87q.1,12.22.09,24.44m-17.64-81.5L171,71.34a1.29,1.29,0,0,1-1.29,1.29h-2.48a1.29,1.29,0,0,1-1.29-1.29V66.72a1.29,1.29,0,0,0-1.29-1.29H142a9,9,0,0,0,8.59-8.25v-.6a1.29,1.29,0,1,0-2.59,0v.56c-.13,1.95-1.7,8.29-16.65,8.29h-12A1.29,1.29,0,0,0,118,66.72v4.62a1.29,1.29,0,0,1-1.29,1.29h-2.48a1.29,1.29,0,0,1-1.29-1.29l-1.27-10.39a1.39,1.39,0,0,1,.07-.44c4.46-13.13,15.61-22.58,30.24-22.58s25.78,9.45,30.24,22.58a1.39,1.39,0,0,1,.07.44m112.6,80.93v.56h-95q0-12.31.12-24.63c.1-10,4.44-17.78,11.69-22.07.21-.12.4-.25.61-.37v0q.92-.51,1.9-.95v0c.32-.14.64-.27,1-.4l.29-.12c.74-.28,1.5-.53,2.27-.75l.16,0c.66-.18,1.33-.35,2-.49v0c.62-.13,1.26-.22,1.9-.31v0l.76-.08.84-.09c.8-.08,1.61-.13,2.45-.14h3.66c-.5-.42-1-.83-1.47-1.28h0a23.16,23.16,0,0,1-6.94-15.51h.48a3.84,3.84,0,0,0,3.83-3.83V68h10.79a39.24,39.24,0,0,0,7.56-.67h1.39a2.52,2.52,0,0,0,1.7.67h21.44v3.37a3.84,3.84,0,0,0,3.83,3.83h.49a23.14,23.14,0,0,1-7,15.57h0c-.45.43-.93.83-1.42,1.23h4.44c.8,0,1.57.05,2.34.13,7.34.57,13.34,3.45,17.47,8.11A141.58,141.58,0,0,0,266,71.45a1.29,1.29,0,0,1-1.28,1.19h-2.48a1.29,1.29,0,0,1-1.29-1.29V66.72a1.29,1.29,0,0,0-1.29-1.29H236.92a9,9,0,0,0,8.58-8.25v-.6a1.29,1.29,0,1,0-2.59,0v.56c-.13,1.95-1.7,8.29-16.65,8.29h-12a1.29,1.29,0,0,0-1.29,1.29v4.62a1.29,1.29,0,0,1-1.29,1.29h-2.48a1.29,1.29,0,0,1-1.29-1.29l-1.27-10.39a1.39,1.39,0,0,1,.07-.44c4.46-13.13,15.61-22.58,30.24-22.58.8,0,1.6,0,2.38.09A142.41,142.41,0,0,0,45.65,38l1.35,0c14.63,0,25.78,9.45,30.24,22.58a1.39,1.39,0,0,1,.07.44L76,71.34a1.29,1.29,0,0,1-1.29,1.29H72.27A1.29,1.29,0,0,1,71,71.34V66.72a1.29,1.29,0,0,0-1.29-1.29H47a9,9,0,0,0,8.58-8.25v-.6a1.29,1.29,0,1,0-2.59,0v.56c-.13,1.95-1.7,8.29-16.65,8.29h-12A1.29,1.29,0,0,0,23,66.72v4.62a1.29,1.29,0,0,1-1.29,1.29H19.25a1.28,1.28,0,0,1-.82-.3,141.6,141.6,0,0,0-12.07,27.9,22.87,22.87,0,0,1,5.45-4.49c.2-.12.4-.25.61-.37v0q.92-.51,1.9-.95v0c.32-.14.65-.27,1-.4l.29-.12c.73-.28,1.5-.53,2.27-.75l.16,0c.66-.18,1.33-.35,2-.49v0c.62-.13,1.26-.22,1.9-.31v0l.76-.08.84-.09c.8-.08,1.61-.13,2.45-.14h3.67c-.5-.42-1-.83-1.47-1.28h0a23.17,23.17,0,0,1-6.95-15.51h.49a3.84,3.84,0,0,0,3.83-3.83V68H36.35a39.25,39.25,0,0,0,7.56-.67H45.3A2.52,2.52,0,0,0,47,68H68.44v3.37a3.84,3.84,0,0,0,3.83,3.83h.49a23.15,23.15,0,0,1-7,15.57h0c-.45.43-.93.83-1.42,1.23h4.44c.8,0,1.57.05,2.34.13,12.06.94,20.54,8.12,23,19.2,0,.13.06.26.09.4.08.4.16.82.22,1.23s.17,1.13.24,1.7c0,.16,0,.33.05.49.09.94.15,1.89.16,2.87q.1,12.22.09,24.44H0v-.15s0,.1,0,.15A143.5,143.5,0,0,0,1.45,162.8h75.3l25.41,16.76h-.53l20.16,13.29h78.5l.5-.76,25.15,16.59h42.63l.19-.37q.7-1.35,1.38-2.71H225.33l-24-15.82H121.17L95.51,172.84l1.12-1.7,25.15,16.59h78.5l.5-.76,25.15,16.59h45.19l.56-1.18.36-.76c.17-.38.33-.76.5-1.14H225.33l-24-15.83H121.17L95.51,167.72l1.12-1.7,25.15,16.59h78.5l.5-.76,25.15,16.59h47.51l.09-.2c.36-.85.71-1.71,1.06-2.57l.13-.31H225.33l-24-15.82H121.17L95.51,162.6l1.12-1.7,25.15,16.59h78.5l.5-.76,25.15,16.59h49.58q.59-1.53,1.14-3.08H225.33l-24-15.83H121.17L95.51,157.49l1.12-1.7,25.15,16.59h78.5l.5-.76,25.15,16.59h51.43q.52-1.52,1-3.06H225.63l-24.2-16v.11H121.17L95.51,152.37l1.12-1.7,25.15,16.59h79.65v1.13h78.75l2.08,1.37a143.16,143.16,0,0,0,2.62-26.82h0c0-.08,0-.16,0-.24s0-.17,0-.25,0-.38,0-.56M224.72,76.29h3.09V73.19h-3.09Zm24.4-3.09H246v3.09h3.09ZM34.8,76.29h3.09V73.19H34.8Zm24.4-3.09H56.11v3.09H59.2Z"/></g></g></svg>