<svg xmlns="http://www.w3.org/2000/svg" viewBox="0 0 284.88 284.88"><defs><style>.cls-1{fill:#6dc2a9;}</style></defs><title>Asset 7</title><g id="Layer_2" data-name="Layer 2"><g id="Layer_1-2" data-name="Layer 1"><path class="cls-1" d="M73.67,56.81l-.43-1.71,8.13-3.27L89.5,55.1l-.42,1.7H104l3.31-.38L113.58,51,103.46,40.92,85.08,35.75H77.65L59.27,40.92,49.16,51l6.23,5.38,3.45.4Zm103.42,3.74H230.8V47.47s-6.75-11.15-26.85-11.15-26.85,11.15-26.85,11.15Zm17.41,7.71h-3.21v3.21h3.21Zm22.1,0h-3.21v3.21h3.21Zm15.12-1.42a1.44,1.44,0,0,0,.42-1v-.31a1.44,1.44,0,0,0-2.42-1.06L213.48,78.11a1.44,1.44,0,0,1-1,.38H195.38a1.44,1.44,0,0,1-1-.38L178.17,64.45a1.44,1.44,0,0,0-2.42,1.06v.31a1.44,1.44,0,0,0,.42,1l3.89,3.89a1.43,1.43,0,0,1,.42,1V84.88a1.44,1.44,0,0,0,.41,1l18.11,16a1.44,1.44,0,0,0,1,.44h7.83a1.44,1.44,0,0,0,1-.44l18.11-16a1.44,1.44,0,0,0,.41-1V71.75a1.43,1.43,0,0,1,.42-1Zm-89.06,18.7A61.31,61.31,0,0,1,229.91,30a142.46,142.46,0,0,0-175.62.54,61.3,61.3,0,0,1,88.37,55M54.87,140.82q-2.1-1-4.1-2.16,0-2.51,0-5c0-2.39.42-4.77.65-7.16l2.74,0c.24,2.56.65,5.12.7,7.67Zm26.07,5.76-9.51-39.45L60.79,92.39H59.07c-.87,0-1.71.07-2.54.15l-.88.1-.79.09v0c-.67.09-1.33.19-2,.32v0c-.71.14-1.41.32-2.09.51l-.17,0c-.81.23-1.6.49-2.36.78l-.3.13c-.34.14-.68.27-1,.42v0q-1,.45-2,1v0c-.22.12-.42.26-.63.38-7.52,4.46-12,12.49-12.12,22.89q0,1.48,0,3A61.36,61.36,0,0,1,24.6,62.4a142.55,142.55,0,0,0-4.49,153.06,62,62,0,0,1-.46-7.59,61.29,61.29,0,0,1,61.29-61.29m-12.65,53h3.21V196.4H68.28Zm22.1,0h3.21V196.4H90.38Zm143.84-60.77q-1.81,1-3.69,1.94V134.4c0-2.71.38-5.43.58-8.14l2.77.1c.12,2.59.33,5.18.33,7.77q0,2.36,0,4.71m-57,1.9q-2.08-1-4.06-2.16,0-2.73,0-5.45c0-2.35.41-4.71.64-7.06l2.7,0c.25,2.66.71,5.32.71,8q0,3.32,0,6.64m-65.51-2q-1.81,1-3.69,1.95,0-3.18,0-6.36c0-.12,0-.24,0-.36v-3c.15-1.48.35-3,.49-4.45l2.74,0c.07.68.14,1.36.23,2,.1,1.85.21,3.7.22,5.55q0,2.34,0,4.69M90.31,72.91h3.21v3.21H90.31ZM71.42,76.12H68.22V72.91h3.21ZM105.81,191s-5.41,23.62-5.42,23.62h0c-.44.42-16.63,5.71-18.74,6.4H93.59v10H68.28V221h11.6l-18.47-6.45h0L56.06,191h8.29c-3.05-1.22-5-2.28-5-2.28L80.94,187l22.5,1.68s-2,1.05-5,2.28h7.39Zm-.5-5.32-24.38-2-23.46,2v-5.76l23.46-3.28,24.38,3.3Zm68,72.82q0-1.71,0-3.41c0-2.39.42-4.77.64-7.15l2.74,0c.24,2.56.65,5.12.7,7.67v5q-2.09-1-4.09-2.16m88-194.53a61.37,61.37,0,0,1-8.3,58.34c0-1,0-1.9,0-2.85-.13-16.07-10.9-26.79-27.05-27h-2.37l-7,11.37-12.65,20-12.65-20-7-11.37-2.78,0c-16,.19-26.46,10.55-26.61,26.43q0,1.71,0,3.43a61,61,0,0,1-12.24-36.75,61,61,0,0,1-12.11,36.59q0-1.37,0-2.74c0-1-.07-2-.17-3,0-.17,0-.34-.06-.51-.07-.6-.15-1.19-.25-1.77s-.14-.86-.23-1.28c0-.14-.07-.27-.1-.41C127.2,101,118.41,93.51,105.9,92.54c-.79-.07-1.6-.12-2.43-.13h-4.6l-8.55,14.75-8.95-9.55s18.5-6,19-6.48h0A24,24,0,0,0,107.59,75c.5,0-4.48-4-4.48-4l4-3.5H98.35c3.05-1.22,5-2.28,5-2.28V58.12H87.64l-6.28,4.54L75.1,58.12H59.27v7.08s2,1.05,5,2.28H54.68l4,3.5-4.48,4a24,24,0,0,0,7.2,16.09h0l18.8,6.57-8.72,9.51L81,131.62l9.45-24.36-9.51,39.32a61.29,61.29,0,0,1,49.06,98c0-.56,0-1.13,0-1.69-.1-12.4-6.55-21.59-16.91-25.24l-3.46-31.44h0l-2.44-13.66s-5.87-11.15-26-11.15-25.8,11.15-25.8,11.15l-2.13,13.66-4.3,31.25a23.77,23.77,0,0,0-15.78,16.29,142.45,142.45,0,0,0,197.52,20.5v-1.89c.15-1.48.35-3,.49-4.45l2.74,0c.07.68.14,1.36.22,2,0,.48.06,1,.08,1.45a143.34,143.34,0,0,0,18-18.12c-2.7-11.16-11.39-18.37-23.69-19.33-.79-.07-1.6-.12-2.43-.13h-3.14V216L215.13,220v3.86h2V237h2.46v3.77h2.77v3.77h2.54v3.77H181.72v-3.77h2.54v-3.77H187V237h2.89V223.84h2v-3.78l-8-4V213.8h-2.28c-.87,0-1.71.07-2.54.15l-.88.1-.79.09v0c-.67.09-1.33.19-2,.32v0c-.71.14-1.41.32-2.09.51l-.17,0c-.81.23-1.6.49-2.36.78l-.3.13c-.34.14-.68.27-1,.42v0q-1,.45-2,1v0c-.22.12-.42.26-.63.38-7.52,4.45-12,12.49-12.12,22.89,0,.46,0,.92,0,1.38a61.29,61.29,0,1,1,110.43-36.63,61.8,61.8,0,0,1-1,11,142.55,142.55,0,0,0-2.94-152.37m-69.2,145h7.75v3h-7.75Zm15.48,0h7.75v3h-7.75Zm-23.66,3.53h0l8.19,3.92v-3.13h7.75v6.83l3.59,1.72,4.15-2v-6.57h7.75v2.88l7.57-3.61h0a24,24,0,0,0,7.26-16.15h-.5a4,4,0,0,1-4-4v-3.5h-9.77a6.91,6.91,0,0,1-.49,13.8h-1.87a6.93,6.93,0,0,1-6.79-5.61h-6.65a6.93,6.93,0,0,1-6.79,5.61h-1.87a6.91,6.91,0,0,1-.47-13.8h-9.79v3.5a4,4,0,0,1-4,4h-.5a24,24,0,0,0,7.2,16.09m19.52,13.43-1.84-.93V237h3.8V224.89Zm-3.21-37.69a39.54,39.54,0,0,1-6.66.67,6.92,6.92,0,0,1,6.55,5.59h6.65A6.92,6.92,0,0,1,213,188.9h-9.57a2.61,2.61,0,0,1-1.76-.7ZM194,197.53h-3.21v-3.21H194Zm3.62-1.76a4.29,4.29,0,0,0-4.29-4.29h-1.87a4.29,4.29,0,1,0,0,8.58h1.87a4.29,4.29,0,0,0,4.29-4.29m15.27-1.45h3.21v3.21h-3.21Zm.67-2.84a4.29,4.29,0,1,0,0,8.58h1.87a4.29,4.29,0,1,0,0-8.58Zm-37.61,2.25a2.63,2.63,0,0,0,2.63-2.63v-2.22a2.63,2.63,0,0,1,2.63-2.63h11.2c15.51,0,17.14-6.58,17.27-8.6v-.59a1.34,1.34,0,1,1,2.68,0v.63a9.85,9.85,0,0,1-3.21,6.34,1.28,1.28,0,0,0,.87,2.22H225.7a2.63,2.63,0,0,1,2.63,2.63v2.22a2.63,2.63,0,0,0,5.25,0V180.44a1.28,1.28,0,0,0-.7-1.15l-11.73-16c-.37-.19-35-.19-35.4,0L174,179.3a1.28,1.28,0,0,0-.7,1.15v10.66a2.63,2.63,0,0,0,2.63,2.63"/></g></g></svg>