<svg xmlns="http://www.w3.org/2000/svg" viewBox="0 0 284.88 284.88"><defs><style>.cls-1{fill:#6dc2a9;}</style></defs><title>Asset 11</title><g id="Layer_2" data-name="Layer 2"><g id="Layer_1-2" data-name="Layer 1"><path class="cls-1" d="M52.73,239c-5,.09-9.94.1-14.9.09a142.42,142.42,0,0,0,215.05-6.71q-94.4,0-188.79,0c-3.42,0-7-.63-7.38,4.62-.05.78-2.58,2-4,2m146-72.34c-16.32,5.64-32.72,11-49.12,16.41a12,12,0,0,1-3.51.33c-7,0-11.25-3.44-12.67-9.39-1-4.33,2-10.23,7.17-12.1,12.16-4.4,24.48-8.35,36.75-12.4,5-1.65,10-3.42,15.1-4.57,6.9-1.54,12.42,1.81,14.21,8,1.61,5.6-1.52,11.5-7.93,13.72M176.35,145c1-6,1.84-11.22,2.66-16.46a13.69,13.69,0,0,0,.22-3.35c-.66-7.12-1.17-14.27-2.27-21.32-.24-1.52-2.64-3.85-4.07-3.87-19.29-.26-38.59-.17-57.88-.21-3.35,0-3.89,2-4.12,4.79-.55,6.75-1.49,13.47-2,20.23-.14,1.74.69,3.54.88,5.33.44,4.25.92,8.5,1,12.76,0,.61-2.67,2-3.68,1.74-9.86-3-16.21-7.9-13.48-20.77,2.16-10.17,3.11-20.81,9.75-29.14A45.49,45.49,0,0,1,117.8,82.79c3.08-1.56,8.68-.77,11.94,1.09,9.64,5.5,18.75,5.85,28-.41,6.49-4.39,12.35-1.58,17.79,2,9.76,6.47,13.85,16.62,16.5,27.42,1.12,4.56,1.56,9.29,2.27,13.94,1.88,12.24-7.39,16.76-18,18.14M164.69,64.81c0,12.06-9,21.1-21,21.08-11.57,0-21.39-9.81-21.29-21.22.1-11,10.1-21,21.13-21.12a21.05,21.05,0,0,1,21.12,21.25m-5.47,87.41c-10.26,5.13-20.67,4.74-31.16,0Zm14.38-9.11c0,3.71-1.42,5-5,5q-25-.13-50,0c-3.68,0-5-1.33-4.92-5q.24-17.88,0-35.76c0-3.47,1.19-4.65,4.62-4.58,8.51.17,17,.06,25.54.06,8.33,0,16.65.1,25,0,3.35-.06,4.75,1,4.71,4.55q-.2,17.88,0,35.76m-79.35,1.73c10.71,2.78,21.2,6.39,31.76,9.72,4.08,1.29,8.1,2.8,12.83,4.45-6.39,6-11.14,12.41-5,21.52l-1.58.57c-14.72-4.85-29.49-9.57-44.13-14.62a10.91,10.91,0,0,1-7.1-13.13c1.73-6.34,6.8-10.17,13.19-8.51m190.62-2.4A142.44,142.44,0,1,0,19,213.52c0-24.26,0-48.51.08-72.77,0-9,4.34-13,13.34-13.27,4-.11,8-.13,11.93,0,9.17.29,12.65,3.72,12.7,12.94.11,19.89,0,39.77,0,59.66,0,15.12,0,15.11,15.17,15.11q96.33,0,192.67,0,1.25-2.1,2.43-4.24-35.15,0-70.3,0c-40.53,0-81.07-.23-121.6.16-10.42.1-14-6.29-13.92-13.78,0-2.65-.11-5.32.14-8,.61-6.49,3.94-10.92,10.14-11q23.5-.32,47,.88c4.91.25,9.9,2.34,14.51,4.37,8.33,3.66,16.32,2.14,24.16-.92a72,72,0,0,1,27-4.88c32,.16,63.95.14,95.92.12q1.52-5.91,2.53-12c-10.21,6.41-25.91,8.57-35.37,4l1.66-4.51-14.12-9-3.42,14.92-2.52-.22a63.39,63.39,0,0,1-.22-31.92c-2.63-2.37-4.81-4.15-6.78-6.15a55.55,55.55,0,0,1-6.46-7.33c-1.19-1.74-2.7-5-2-6a18.88,18.88,0,0,1,7.61-6.12c3.21-1.33,7-1.3,10.75-1.9,4.43,5.89,7.58,12.08,15.25,15.22,11.86,4.85,21.57,12.76,23.17,26.93.36,3.15.05,6.37.05,10.16,5.62,1.18,9.48-1.15,13.22-4.12a143.73,143.73,0,0,0,1.06-17.44"/></g></g></svg>