<svg xmlns="http://www.w3.org/2000/svg" viewBox="0 0 284.88 284.88"><defs><style>.cls-1{fill:#6dc2a9;}</style></defs><title>Asset 9</title><g id="Layer_2" data-name="Layer 2"><g id="Layer_1-2" data-name="Layer 1"><path class="cls-1" d="M198.75,145c-.75,14.44-7.19,26-17.81,35.39-4.76,4.19-10.1,7.72-15.15,11.59a2.2,2.2,0,0,1-2.84.14c-3.65-2.19-7.35-4.29-11.25-6.56,2.59-1.65,5-3.16,7.43-4.73,7.13-4.65,13.95-9.7,19.08-16.58,8.13-10.87,9.89-22.79,4.85-35.45-2.78-7-7.83-12.37-13.52-17.15-7.17-6-15.22-10.72-23.29-15.39-10.16-5.88-20.35-11.73-30.29-18A71.85,71.85,0,0,1,94.65,58.45a47.52,47.52,0,0,1-8.2-32.69c.25-2.54,2.87-5.82,6.51-5.62a6.39,6.39,0,0,1,6.25,5.69c.14,1.28.18,2.58.26,3.87a8.83,8.83,0,0,0-.31,1.66,34.45,34.45,0,0,0,7.92,21.94C113.17,61,121,66.54,129.26,71.56c6.27,3.81,12.68,7.41,19.06,11,2.6,1.48,5.3,2.78,8,4.16,6.3,4.26,12.75,8.31,18.87,12.82,9.25,6.81,16.75,15.23,20.84,26.11A47.58,47.58,0,0,1,198.75,145m-.25,113.89a6.38,6.38,0,0,1-5.73,5.81c-3.28.27-6.12-1.46-6.82-4.65-.4-1.81-1.3-1.89-2.72-1.89q-36.07,0-72.14,0c-2.87,0-2.89,0-3-2.94,0-1.82,0-3.63,0-5.62h77.49a36.84,36.84,0,0,0-1.15-5.49c-1.05-2.81-2.45-5.49-3.63-8.26a2.39,2.39,0,0,0-2.62-1.53c-7.68.05-15.37,0-23,0h-38l-.28-.44c1.9-1.71,3.85-3.37,5.7-5.13,2.47-2.37,5.33-3,8.75-3,12.87.18,25.74.07,38.6.07H172l.19-.43c-1.2-1.06-2.35-2.18-3.6-3.18-8.71-7-18.37-12.41-28.07-17.8-2.41-1.34-4.79-2.73-7.21-4a11.85,11.85,0,0,0-2-.66,16.19,16.19,0,0,0-1.72-1.45c-5.35-3.41-10.75-6.76-16.07-10.21-2.39-1.55-4.64-3.31-7-5-7.8-6.58-14.22-14.3-17.52-24-5.9-17.39-3.26-33.51,8.41-47.91,6.11-7.55,13.83-13.22,21.9-18.45a2.45,2.45,0,0,1,2.08-.21c3.85,2.11,7.63,4.35,11.45,6.57L112.5,113.61l.32.8H115c13.86,0,27.72,0,41.58,0a5.84,5.84,0,0,1,3.18,1.1c2.28,1.66,4.42,3.51,6.58,5.32a24.73,24.73,0,0,1,1.83,1.93,13,13,0,0,1-1.53.22c-19.77,0-39.54,0-59.32,0a3.65,3.65,0,0,0-3.68,2.16,34.64,34.64,0,0,0-4.26,13H174c2.69,0,2.75.06,2.86,2.7.25,5.95.25,5.95-5.72,5.95H99.47a15.27,15.27,0,0,0,.48,3.17c1.4,3.65,2.84,7.3,4.47,10.85.28.6,1.61,1,2.45,1,16.55.06,33.11,0,49.66,0H168l-2.32,3.48a44.89,44.89,0,0,0-4.91,3.37,7.6,7.6,0,0,1-5.54,1.85c-13.51-.08-27,0-40.54,0-.62,0-1.23.06-2.3.11,1.41,1.23,2.46,2.19,3.56,3.09,7.41,6.13,15.71,10.91,24,15.66a5.68,5.68,0,0,0,1.28.37,14.13,14.13,0,0,0,1.47,1.18c9.76,5.92,19.69,11.58,29.25,17.8a65.53,65.53,0,0,1,18.4,17.89,47.37,47.37,0,0,1,8.37,26.84,52.7,52.7,0,0,1-.29,5.46m-99.26-1.73c.29,4.4-2.38,7.53-6.35,7.56a6.44,6.44,0,0,1-6.49-6.08c-1.41-15.42,3.66-28.5,14.27-39.57a100.82,100.82,0,0,1,18.6-14.79,2.14,2.14,0,0,1,2.64-.09c3.69,2.23,7.46,4.32,11.26,6.49-4.46,3-8.79,5.69-12.93,8.67-6.69,4.83-12.69,10.35-16.8,17.7a35.34,35.34,0,0,0-4.2,20.1m9.08-229.39c0-.39.76-1,1.25-1.07a12,12,0,0,1,2.55-.06q35.47,0,70.95,0c1.61,0,2.54-.13,3-2.09.69-3.12,3.74-4.82,7-4.42a6.48,6.48,0,0,1,5.5,6.05c1.5,16.55-4.26,30.36-16.3,41.46-5.13,4.74-11,8.64-16.63,12.87a2.24,2.24,0,0,1-1.88.41c-4-2.16-7.87-4.44-12.09-6.87,7.35-4.56,14.49-8.9,20.81-15-.89-.07-1.44-.14-2-.14Q150.72,59,131,59a10.37,10.37,0,0,0-1.84.33c-5.51-.79-8.37-5.26-12.5-8.52l3.21-.69a12.32,12.32,0,0,0,2.09.35q28.06,0,56.13,0a3,3,0,0,0,2.2-.74,30.66,30.66,0,0,0,5.11-13.48,5.59,5.59,0,0,0-.07-.94H108.27c0-2.62-.06-5.08.06-7.52M142.44,0A142.44,142.44,0,1,0,284.88,142.44,142.44,142.44,0,0,0,142.44,0"/></g></g></svg>