<svg xmlns="http://www.w3.org/2000/svg" viewBox="0 0 284.88 284.88"><defs><style>.cls-1{fill:#6dc2a9;}</style></defs><title>Asset 5</title><g id="Layer_2" data-name="Layer 2"><g id="Layer_1-2" data-name="Layer 1"><path class="cls-1" d="M158.86,131.66,132.1,158.25l-6.19-6.5,26.42-26.33,6.53,6.25m-24.21-5.49,7.66,6-9.57,9.22c-3.31-6.88-8.21-6.06-14.92-3.38-8.31,3.32-16.73,1.56-23.46-4.57l39.19-39.19c7.54,7.89,8.13,18.58,1.1,31.94M114,110.42l-3.2,3.68C109.35,111.42,92.9,94,91.42,91.28c2.65,1.39,20.06,17.81,22.59,19.14m-4.86-41.11a3,3,0,0,1-3,3A33.74,33.74,0,0,0,72.45,106a3,3,0,0,1-6,0,39.74,39.74,0,0,1,39.7-39.7,3,3,0,0,1,3,3m0-17.67a3,3,0,0,1-3,3A51.42,51.42,0,0,0,54.78,106a3,3,0,0,1-6,0,57.43,57.43,0,0,1,57.37-57.37,3,3,0,0,1,3,3m0-18.12a3,3,0,0,1-3,3A69.57,69.57,0,0,0,36.65,106a3,3,0,0,1-6,0,75.58,75.58,0,0,1,75.49-75.49,3,3,0,0,1,3,3M240.27,55.48l34.85,35.07a142.46,142.46,0,1,0-183.58,185L55.7,240A46.41,46.41,0,0,1,61,235.71,64,64,0,0,0,81.6,215.32c3.67-5.64,9-9.38,14.25-13.2,4.84-3.51,9.45-7.27,12.6-12.42,6.32-10.35,16.07-17,26.08-24.26l9.12,9.83,4.06-4.53L135.5,158.81l23.33-23.05,11.94,12.57,4.71-4.94-10-9c7.3-9.7,13.51-19.3,23.48-25.54A42,42,0,0,0,202.05,96,59.87,59.87,0,0,1,220.24,77.9c6.13-3.93,10.33-9.63,14.55-15.34,1.79-2.42,3.68-4.76,5.49-7.08M209.72,193,193,209.82c-.89-3.38-1.84-6.69-2.59-10.05-.16-.73.41-1.63.67-2.44,0-.1.16-.16.24-.25,7.3-8.05,8.08-8.22,18.39-4.11m-5.36-11.65-22.89,22.75-3.45-3.5c3.91-3.7,7.85-7.28,11.61-11s7.4-7.72,11.13-11.64l3.6,3.42m80.52-38.87a142.07,142.07,0,0,0-9.43-51c-6.3,8.22-12,17.5-21.39,23.44a49.58,49.58,0,0,0-15,14.87,53.57,53.57,0,0,1-16.23,16.12C215.7,150.29,211,156.92,206,163.4c-1.47,1.93-3,3.85-4.82,6.26l-11.16-11.83-4.57,4.71,14.63,13.79-23.2,22.92-14-14.65-4.07,5.3,11.4,10.85c-3.74,2.88-6.51,5.41-9.65,7.36-7.66,4.75-12.5,12.06-17.93,18.88a38.13,38.13,0,0,1-6.87,7.25,124.89,124.89,0,0,0-24.07,23.44c-5.55,7-13.16,12.31-19.54,18A142.51,142.51,0,0,0,284.88,142.44"/></g></g></svg>