<svg xmlns="http://www.w3.org/2000/svg" viewBox="0 0 284.88 240.39"><defs><style>.cls-1{fill:#6dc2a9;}</style></defs><title>Asset 3</title><g id="Layer_2" data-name="Layer 2"><g id="Layer_1-2" data-name="Layer 1"><path class="cls-1" d="M169.1,121.63h-6.76v6.76h6.76Zm-46.56,0h-6.76v6.76h6.76Zm31.42-41a11.52,11.52,0,1,0-11.52,11.51A11.53,11.53,0,0,0,154,80.63m45.43-4.29H170.7a27.28,27.28,0,0,0-8.45-16.77V38c20.51,0,37.13,30.87,37.13,30.87Zm-33.66,4.29a23.28,23.28,0,1,1-23.28-23.28,23.28,23.28,0,0,1,23.28,23.28m-7.63-24.37s0,.06,0,.1a27.22,27.22,0,0,0-14.55-4.19h-1.8a27.62,27.62,0,0,0-14.94,4.37c0-.09,0-.18,0-.27V38a6.82,6.82,0,0,1,6.83-6.82h17.66A6.82,6.82,0,0,1,158.09,38Zm-35.46,3.53a27.68,27.68,0,0,0-8.42,16.55H85.5V68.91S102.13,38,122.63,38h0ZM56.13,166.58H39.58v-9.94a1.24,1.24,0,0,0-.06-.39l-2.67-8.1a1.26,1.26,0,0,0-2.39,0l-2.67,8.1a1.24,1.24,0,0,0-.06.39v9.94H16.25a2.79,2.79,0,0,1-2.71-3.46l4.9-19.8a14,14,0,0,1,1.76-4.13l12.66-20a2.79,2.79,0,0,1,4.67-.07L51.18,139.3A14,14,0,0,1,53,143.23L58.81,163a2.79,2.79,0,0,1-2.68,3.58m228.76-24.14A142.44,142.44,0,1,0,31.73,232.06V170.7a2.79,2.79,0,0,1,2.79-2.79h2.26a2.79,2.79,0,0,1,2.79,2.79V210c2.67-30.14,24.11-49.47,55.71-49.85,2.12,0,4.23,0,6.35,0C92.16,151.53,86,137.76,86,122.22V117.1a18.55,18.55,0,0,1,2-8.45H78.15a3.67,3.67,0,0,1,0-7.34h3.7V87.48a6.85,6.85,0,0,1,6.85-6.85H114v.7a27.76,27.76,0,0,0,22.84,27.32h11.25A27.76,27.76,0,0,0,170.9,81.33v-.7h25.28A6.85,6.85,0,0,1,203,87.48V101.3h3.7a3.67,3.67,0,0,1,0,7.34h-9.82a18.55,18.55,0,0,1,2,8.45v5.12c0,15.55-6.19,29.33-15.69,37.94,1.83,0,3.66,0,5.49,0,22.85.28,40.59,10.57,49.83,27.57V157.67a2.6,2.6,0,0,1,2.6-2.6h2.11a2.6,2.6,0,0,1,2.6,2.6v82.72a141.92,141.92,0,0,0,38.58-86.66l-29.32-7.83h-8v4.42a3.32,3.32,0,0,1-3.32,3.32h-3.08a3.32,3.32,0,0,1-3.32-3.32V145.9h-7.71L195,155.07l30-16.34h12.4v-2.8a3.32,3.32,0,0,1,3.32-3.32h3.08a3.32,3.32,0,0,1,3.32,3.32v2.8h12.56l24.9,13.64c.23-3.28.35-6.59.35-9.93"/></g></g></svg>