<svg xmlns="http://www.w3.org/2000/svg" viewBox="0 0 284.88 284.88"><defs><style>.cls-1{fill:#6dc2a9;}</style></defs><title>Asset 10</title><g id="Layer_2" data-name="Layer 2"><g id="Layer_1-2" data-name="Layer 1"><path class="cls-1" d="M215.65,181.75a7.26,7.26,0,1,0,7.26-7.26,7.27,7.27,0,0,0-7.26,7.26M185.8,216a7.26,7.26,0,1,0,7.26-7.26A7.27,7.27,0,0,0,185.8,216m-45.55-12.7V190.83c-5.53.5-14.57,2.88-18.7,12.61l-.29.69-8.08-3.43.29-.69c6.39-15.07,21.31-17.6,26.78-18V133.13c-6.44-1.51-20.86-3.5-28.62,6.23s-16.71,11.79-22.85,11.79c-.77,0-1.56,0-2.35-.11A21.76,21.76,0,0,1,66.36,164.3h-.75v-8.78h.75a13.08,13.08,0,0,0,0-26.17h-.75v-8.78h.75a21.89,21.89,0,0,1,21.86,21.76c4.49.19,10.79-1.23,16.55-8.46,4.58-5.75,11-9.26,19-10.41a49.78,49.78,0,0,1,16.47.65V97.32c-5.47-.41-20.39-2.95-26.78-18l-.29-.69,8.08-3.43.29.69c4.1,9.65,13.15,12.06,18.7,12.59V80a22.89,22.89,0,1,0-22.89,22.89h.75v8.78h-.75A31.61,31.61,0,0,1,96.85,104,13.1,13.1,0,0,0,85.74,117v.75H77V117a21.93,21.93,0,0,1,13.57-20.2A31.46,31.46,0,0,1,85.7,80c0-.47,0-.94,0-1.39-6.91,3-16.92,10.68-15,29.19l.31,3-2.75,1.35c-.7.35-17.17,8.81-17.17,30.27,0,19,5.47,23.7,6.42,24.38L61.23,168,60,171.78c-.16.86-2.83,15.73,5.28,25.87,4.41,5.51,11.38,8.85,20.74,9.92a30.21,30.21,0,0,1-.32-4.29,31.25,31.25,0,0,1,2.63-12.57,21.84,21.84,0,0,1-15.62-20.93V169h8.78v.75a13.11,13.11,0,0,0,11.8,13,31.49,31.49,0,0,1,20.08-10.92,21.78,21.78,0,0,1,21.47-17.72h.75v8.78h-.75A13.1,13.1,0,0,0,121.76,176v4.39h-4.39a22.89,22.89,0,1,0,22.89,22.89M200.32,72.6a7.26,7.26,0,1,0-7.26,7.26,7.27,7.27,0,0,0,7.26-7.26m29.85,26.89a7.26,7.26,0,1,0-7.26,7.26,7.27,7.27,0,0,0,7.26-7.26m3.59,41.5a7.26,7.26,0,1,0-7.26,7.26,7.27,7.27,0,0,0,7.26-7.26m8.78,0a16,16,0,0,1-31.45,4.39H184.3v-8.78h26.79A16,16,0,0,1,242.54,141m-3.59-41.5a16,16,0,0,1-31.45,4.39H202l-14.57,22.57H177v-8.78h5.64L197.23,95.1H207.5a16,16,0,0,1,31.45,4.39M209.1,72.6a16,16,0,0,1-20.79,15.3l-19.63,19.64H149v10.13h7.65v8.78H149v10.15H164v8.78H149v10.15h7.65v8.78H149v17.63h19.64l19,19a16.06,16.06,0,1,1-7.2,5.22L165,190.71H149v63.58h-8.78V225.12a31.6,31.6,0,0,1-51.58-8.51c-13.58-.79-23.77-5.34-30.29-13.53-8.56-10.75-8.09-24.52-7.4-30.33-7.51-7.17-8.64-22-8.64-30.31,0-21.5,13.29-32.62,19.43-36.61C60.33,77.72,82.4,70.08,87.84,68.63a31.6,31.6,0,0,1,52.41-10.5V30.59H149V98.76h16L180.83,83A16,16,0,1,1,209.1,72.6m-37.86,91.34h-8.78v-8.78h8.78Zm-8.78-46.27h8.78v8.78h-8.78Zm16.06,27.71h-8.78v-8.78h8.78Zm29.08,41.13H197.23l-14.57-22.57H177v-8.78h10.42L202,177.73h5.37a16.05,16.05,0,1,1,.22,8.78m77.28-44.07A142.44,142.44,0,1,0,142.44,284.88,142.44,142.44,0,0,0,284.88,142.44"/></g></g></svg>