<svg xmlns="http://www.w3.org/2000/svg" viewBox="0 0 284.88 284.88"><defs><style>.cls-1{fill:#6dc2a9;}</style></defs><title>Asset 2</title><g id="Layer_2" data-name="Layer 2"><g id="Layer_1-2" data-name="Layer 1"><path class="cls-1" d="M189.54,166.39c.5-5.27,1-10.37,1.47-15.47q3.31-33.15,6.64-66.3c.45-4.44.83-8.88,1.44-13.3a4,4,0,0,1,1.7-2.63c5.38-3.09,10.86-2.93,16.18.16a4,4,0,0,1,1.61,2.69q4.33,42.41,8.51,84.83c.33,3.28.68,6.56,1,10Zm-8.69-124.2a15.61,15.61,0,0,1-3.36-9.91H182c.12.48.29,1,.4,1.6A12,12,0,0,0,193.52,44a34.16,34.16,0,0,1,5.68.81,16.41,16.41,0,0,1,11.89,16h-4.4c-.16-.57-.34-1.13-.46-1.71-1.32-6.29-5.43-9.92-11.8-10.21-5.56-.26-10.16-2.3-13.57-6.77M151.76,166.35c.63-6.47,1.24-12.73,1.86-19,1.53-15.4,3.11-30.8,4.55-46.22.19-2.06.94-3.43,2.84-3.83a19.12,19.12,0,0,1,6.15-.58c4.14.51,4.83,1.6,5.24,5.73q2.75,28.07,5.59,56.13c.25,2.51.48,5,.73,7.75Zm-9-93.68c3.74-.78,3.78-.71,5.24,2.63,1.35,3.1,3.79,4.58,7.19,4.78,6.24.35,10.79,4.06,12.13,9.73a25.88,25.88,0,0,1,.34,2.69H163c-.82-5.46-4.26-7.47-9.5-7.78-6.13-.37-11.15-6.31-10.68-12M142.44,0a142.43,142.43,0,0,0-97.2,246.55V170.37L87,153.65c4.78-1.91,7.74.07,7.77,5.21,0,3.49,0,7,0,11l23.28-9.3c5.84-2.34,11.67-4.7,17.53-7,4.43-1.75,7.43.32,7.46,5.12,0,4.2,0,8.4.06,12.6a4,4,0,0,0,.35.86h3.14l85,.09c1,0,1.93,0,2.89,0,3.24.17,5.06,1.92,5.06,5.13q0,34.59,0,69.19A142.43,142.43,0,0,0,142.44,0"/><path class="cls-1" d="M210.49,195.73q-14.3-.13-28.6,0c-3.23,0-4.92,1.91-5,5.21-.07,4.55-.08,9.1,0,13.64.06,3.41,1.86,5.13,5.26,5.16,4.63,0,9.27,0,13.91,0s9.44,0,14.17,0c3.4,0,5.17-1.77,5.21-5.19q.09-6.82,0-13.64c0-3.26-1.77-5.15-5-5.18"/><path class="cls-1" d="M66.39,219.75c4.63,0,9.27,0,13.9,0s9.45,0,14.17,0c3.23,0,5.07-1.77,5.14-5q.15-6.95,0-13.9c-.06-3.25-1.84-5.07-5.09-5.1q-14.17-.11-28.33,0c-3.41,0-5.09,1.87-5.13,5.31q-.07,6.69,0,13.38c0,3.56,1.8,5.31,5.34,5.33"/><path class="cls-1" d="M71.61,266a142.62,142.62,0,0,0,141.67,0H71.61"/><path class="cls-1" d="M124.69,219.76c4.55,0,9.09,0,13.64,0s9.09,0,13.64,0c3.83,0,5.57-1.76,5.61-5.64,0-4.28.05-8.57,0-12.85,0-3.69-1.8-5.53-5.48-5.55q-13.9-.09-27.8,0c-3.5,0-5.28,1.89-5.34,5.42q-.09,6.56,0,13.11c0,3.79,1.85,5.49,5.74,5.51"/></g></g></svg>