<svg xmlns="http://www.w3.org/2000/svg" viewBox="0 0 284.88 284.88"><defs><style>.cls-1{fill:#6dc2a9;}</style></defs><title>Asset 12</title><g id="Layer_2" data-name="Layer 2"><g id="Layer_1-2" data-name="Layer 1"><path class="cls-1" d="M162.26,113.23a2.4,2.4,0,0,0,.58-2.09c-1.13-2.29-3-2.53-4.8-.75q-15.11,15.05-30.21,30.11-23.45,23.3-47,46.51c-1.8,1.77-1.7,3,.07,4.39l1.82,1.45c.91-.83,1.72-1.53,2.47-2.28q21.62-21.72,43.24-43.46c11.26-11.3,22.57-22.56,33.82-33.88m2.51,14.16c2.33-2.33,4.61-4.71,7-7.19-1.72-1.62-2.56-3.77-4.89-1.41-9.68,9.84-19.49,19.57-29.24,29.35q-12.43,12.46-24.84,24.94-11.64,11.65-23.33,23.26c-1,1-1.79,1.92-.37,3.31s2.18,1.24,3.47-.08c4.88-5,9.88-9.87,14.82-14.81l57.34-57.38m-9,26q11.56-11.71,23.19-23.36c1.07-1.07,1.22-1.89,0-2.83-.65-.49-1.24-1.06-2-1.68-.85.78-1.61,1.42-2.3,2.12L120.37,182c-7.52,7.53-15,15.1-22.58,22.56-1.72,1.7-1,2.77.26,4.13,1.46,1.52,2.42.66,3.5-.47,1.5-1.56,3.09-3,4.61-4.57q24.79-25.13,49.57-50.26m81.54,45.92a46.32,46.32,0,0,1-11.41,26.85A43.67,43.67,0,0,1,202.4,240.5c-4.72,1.1-9.71,1.13-14.59,1.44-1.87.12-3,.5-3.7,2.46-2.46,6.49-7,9.42-14,9.41-6.62,0-6.63,0-6.63-6.57,0-6.08.07-12.17,0-18.25,0-2.27.76-3.2,3.05-3.08,4.36.23,9.07-.7,12.6,2.68a32.93,32.93,0,0,1,5.09,6.89c.73,1.21,1.34,1.88,2.8,1.93,18.1.64,32-6.49,41-22.37,4.75-8.39,6-17.64,4.89-27.08-1.85-16-10.21-27.65-24.66-34.77-6.81-3.35-14.21-4-21.67-4-4.75,0-9.5-.07-14.25.11a6.61,6.61,0,0,0-3.74,1.46c-2,1.65-3.62,3.67-5.46,5.48-1.1,1.08-1.23,2-.08,3.18,2.37,2.34,4.69,4.73,7,7.09,1,1,2,.91,3-.09a46.71,46.71,0,0,1,4.34-4.12c1.16-.89,2.93-2.21,3.89-1.86a6.16,6.16,0,0,1,4.34,5,10.81,10.81,0,0,1-.11,4c-.62,2.26.18,3.81,1.72,5.34,7.67,7.62,15.13,15.46,23,22.85,4.09,3.84,4.32,9.93-.16,13.4-2,1.57-3.62,3.67-5.49,5.44-3.71,3.49-8.18,3.45-11.76-.15q-11.52-11.58-22.92-23.27c-1.73-1.78-3.45-2.9-6.11-2.34-3.11.65-5.88,0-8-2.76-1.23-1.62-1.41-2.9.08-4.34,1.73-1.68,3.4-3.43,5.14-5.1,1.14-1.09,1.18-2,0-3.17-2.31-2.28-4.54-4.64-6.82-6.95-1.15-1.17-2.09-1.11-3.33.15q-22.74,23.14-45.57,46.18c-5.48,5.56-5.75,5.63-11.21.17Q83,203.8,72,192.62c-2.49-2.51-2.49-4.3.05-6.84q17-17,34.11-34a16.4,16.4,0,0,0,1.39-1.82l-.4-.72c-4.57,0-9.13,0-13.69,0a44.87,44.87,0,0,1-26.95-9.11C57,133,50.64,123.72,48.5,112,46,98.56,47.13,85.61,54.71,73.77A46.49,46.49,0,0,1,80,54.19c7-2.32,14.4-2.5,21.75-2.29,1.81.05,1.89,1.2,1.93,2.54,0,1.55-.76,2-2.16,2-4.73.21-9.53.09-14.18.85-13.9,2.27-24.14,9.93-30.68,22.35-8.39,15.95-6.53,41,10,54.83a43.31,43.31,0,0,0,28.5,10.28c5.33,0,10.67.08,16-.11a6.61,6.61,0,0,0,3.68-1.6c2-1.65,3.64-3.64,5.51-5.41,1.14-1.08,1.29-2,.11-3.13-6.65-6.64-13.09-13.5-20-19.9-2.81-2.61-6.68-4-9.78-6.38C84.87,103.81,79.67,98.73,76.35,92c-1.65-3.36-3.57-6.59-5.19-10-.32-.67.12-1.71.21-2.58,0-.07.1-.13.16-.19,5.12-4.82,2.77-4.95,9.54-1.36,2.35,1.25,4.68,2.53,7,3.82a41.91,41.91,0,0,1,16.78,16.65c2.69,4.9,6.34,8.9,10.18,12.81,4.67,4.74,9.45,9.37,14.09,14.13,1.46,1.51,2.36,1.4,3.82-.09,8.86-9,17.67-18.08,26.87-26.74,2.55-2.4,6.34-3.56,9.64-5.1C181.3,87.89,193.18,82.48,205,77c.75-.34,1.56-.59,2.28-1,1.74-1,3.57-1.33,5.1.1s1.17,3.57.39,5.36c-2,4.64-4.2,9.23-6.3,13.84-4.48,9.82-8.66,19.8-13.59,29.38-1.94,3.78-5.5,6.75-8.46,10s-5.86,6-9.33,9.59c1.74.23,2.74.44,3.74.48,5.91.21,11.84.07,17.72.61,11.24,1,20.66,6.11,28.3,14.3,10.44,11.2,13.73,24.68,12.41,39.67M179,60.28a23.87,23.87,0,0,1-23.58,17.36c-7.49-.22-15,0-22.47,0-3.2,0-3.28-.08-3.28-3.39q0-10,0-20h0c0-6.82.06-13.65,0-20.48,0-2,.62-2.8,2.7-2.78,8.49.08,17-.11,25.47.08,14.45.32,24.95,15.32,21.17,29.23M125,33.39c-.06,5.41,0,10.83-.1,16.24,0,.68-.95,1.91-1.48,1.93-6.07.13-12.15.09-18.22.07-.22,0-.44-.2-.82-.38.89-9.68,8.8-18.28,18.1-19.83,1.63-.27,2.54.08,2.51,2m0,33.75c0,2.75,0,5.5,0,8.24,0,1.52-.69,2.07-2.21,1.81-8.67-1.47-16.38-9-18.18-17.74-.52-2.52-.21-2.92,2.45-2.93,5,0,10,0,15,0,2.08,0,3.08.69,3,2.91-.12,2.57,0,5.16,0,7.74M47.74,194.61a2.73,2.73,0,0,1,1.67-1.44,2.53,2.53,0,0,1,2,1,5.8,5.8,0,0,1,.6,2.62c1.42,19.08,11.41,31.79,29,38.62,5.17,2,10.76,2,16.25,1.86a3.52,3.52,0,0,0,2.35-2c2.48-6.2,6.59-9.16,13.31-9.25,4.08-.05,8.16,0,12.24-.09,1.82,0,2.73.52,2.64,2.61-.16,3.82,0,7.66-.05,11.49s-.08,7.83,0,11.74c0,1.6-.58,2-2,2-4.91,0-9.86.32-14.73-.15A12.66,12.66,0,0,1,100,245.15c-.93-2.44-2.09-3.26-4.69-3.22-17.81.33-31.41-7.52-41-22.22a41.12,41.12,0,0,1-6.81-22.89,5.11,5.11,0,0,1,.24-2.21m84.91,45c0-3.82-.06-7.64.05-11.46,0-.72.76-1.41,1.17-2.11.35.67,1,1.33,1,2q.15,11.83.08,23.66c0,.64-.69,1.28-1.07,1.92-.42-.69-1.17-1.36-1.19-2.06-.12-4-.06-8-.06-12m7.17-11.46c0-.69.82-1.38,1.26-2.07.39.7,1.1,1.4,1.12,2.11.11,4,.05,8,.05,12h0c0,3.91.05,7.81-.05,11.71,0,.61-.74,1.2-1.13,1.8-.41-.61-1.15-1.22-1.16-1.83q-.14-11.84,0-23.68M147,247.13c0-6.16.06-12.32,0-18.48,0-2.08.8-2.82,2.8-2.79,7.51.09,6.26-.72,6.36,6.11,0,2.66,0,5.33,0,8h0c0,3.91-.06,7.83,0,11.74,0,1.67-.64,2.2-2.21,2.16-8.25-.21-6.92,1.18-6.94-6.72M284.88,142.44A142.44,142.44,0,1,0,142.44,284.88,142.44,142.44,0,0,0,284.88,142.44"/></g></g></svg>