<svg xmlns="http://www.w3.org/2000/svg" viewBox="0 0 283.42 284.88"><defs><style>.cls-1{fill:#6dc2a9;}</style></defs><title>Asset 4</title><g id="Layer_2" data-name="Layer 2"><g id="Layer_1-2" data-name="Layer 1"><rect class="cls-1" x="61.23" y="83.4" width="4.61" height="4.61"/><rect class="cls-1" x="204.88" y="83.4" width="4.61" height="4.61"/><rect class="cls-1" x="93" y="83.4" width="4.61" height="4.61"/><rect class="cls-1" x="236.64" y="83.4" width="4.61" height="4.61"/><path class="cls-1" d="M123.44,80.63a1.93,1.93,0,0,1-1.93,1.93h-3.69a1.93,1.93,0,0,1-1.93-1.93v-8.8a1.89,1.89,0,0,0-3.78,0H48.23a1.89,1.89,0,0,0-3.79,0v1.58a1.8,1.8,0,0,0-.07.34v6.89a1.93,1.93,0,0,1-1.93,1.93H38.76a1.93,1.93,0,0,1-1.93-1.93V65.13a2.06,2.06,0,0,1,.11-.66c6.65-19.57,21.38-33.66,43.2-33.66s36.55,14.09,43.2,33.66a2.07,2.07,0,0,1,.11.66Zm-16.05,28.92h0c-.67.64-1.39,1.23-2.11,1.83h0c-7.11,8.13-12.3,11-25.58,11-13.54,0-19.42-3.26-26.16-11-.75-.62-1.49-1.24-2.19-1.91h0c-5.83-5.41-9.74-13.7-10.35-23.13h.72a5.72,5.72,0,0,0,5.71-5.71v-5h63.94v5a5.72,5.72,0,0,0,5.71,5.71h.72c-.61,9.48-4.56,17.81-10.44,23.21m78-23.21a5.72,5.72,0,0,0,5.71-5.71v-5H255v5a5.72,5.72,0,0,0,5.71,5.71h.72c-.61,9.48-4.56,17.81-10.44,23.21h0c-.67.64-1.39,1.23-2.11,1.83h0c-7.11,8.13-12.3,11-25.58,11-13.54,0-19.42-3.26-26.16-11-.75-.62-1.49-1.24-2.19-1.91h0c-5.83-5.41-9.74-13.7-10.35-23.13ZM170.59,117c.3-.18.59-.38.91-.55v0q1.38-.76,2.84-1.41v0c.47-.21,1-.4,1.45-.6l.44-.18c1.1-.42,2.23-.79,3.39-1.12l.24-.07c1-.27,2-.53,3-.73v0c.93-.19,1.88-.33,2.84-.46v0l1.14-.12,1.26-.14c.6-.06,1.22-.07,1.83-.11,7.2,8.27,5.78,18.68,33.44,18.68,29.79,0,26-11.7,32.2-18.78,1.19,0,2.35.08,3.49.19,10,.78,18.31,4.42,24.37,10.33a141.49,141.49,0,0,0-16.33-48.49v7.18a1.93,1.93,0,0,1-1.93,1.93h-3.69a1.93,1.93,0,0,1-1.93-1.93v-8.8a1.89,1.89,0,0,0-3.78,0H191.88a1.89,1.89,0,0,0-3.79,0v1.58a1.8,1.8,0,0,0-.07.34v6.89a1.93,1.93,0,0,1-1.93,1.93h-3.69a1.93,1.93,0,0,1-1.93-1.93V65.13a2.06,2.06,0,0,1,.11-.66c6.65-19.57,21.38-33.66,43.2-33.66a46.88,46.88,0,0,1,8,.67A142.5,142.5,0,0,0,2.68,170H9.38q0-10.06.13-20.12C9.66,135,16.13,123.42,26.94,117c.3-.18.6-.38.91-.55v0q1.38-.76,2.84-1.41v0c.47-.21,1-.4,1.45-.6l.44-.18c1.09-.42,2.23-.79,3.39-1.12l.24-.07c1-.27,2-.53,3-.73v0c.93-.19,1.88-.33,2.84-.46v0l1.14-.12,1.26-.14c.6-.06,1.22-.07,1.83-.11,7.2,8.27,5.78,18.68,33.44,18.68,29.79,0,26-11.7,32.2-18.78,1.19,0,2.35.08,3.49.19,18,1.4,30.62,12.1,34.25,28.63,0,.2.09.39.14.59.12.6.23,1.22.33,1.84.14.83.26,1.68.35,2.54,0,.25.06.49.08.73.13,1.4.23,2.81.24,4.28q.08,9.92.11,19.84H153q0-10.06.13-20.12c.15-14.95,6.62-26.5,17.43-32.91"/><path class="cls-1" d="M253.17,190.71a26,26,0,0,0-8.2,50.61,142.65,142.65,0,0,0,27.91-41.55,25.91,25.91,0,0,0-19.71-9.06"/><path class="cls-1" d="M153.8,216.68a26,26,0,1,0,26-26,26,26,0,0,0-26,26"/><path class="cls-1" d="M27.25,118.5H54.57v51.74H27.25Zm34.55-.2h7.73v51.92l-7.73.4Zm14.68.08H133v51.9H76.48Zm75.42-.1h27v52h-27Zm34.26.17h7.62v51.93h-7.62Zm14.79-.09h56.6V170h-56.6Z"/><path class="cls-1" d="M80.41,216.68a26,26,0,1,0,26-26,26,26,0,0,0-26,26"/><path class="cls-1" d="M58.32,257.4a142.48,142.48,0,0,0,168.26,0q-84.13.05-168.26,0"/><path class="cls-1" d="M33,190.71a25.92,25.92,0,0,0-20.52,10.06,142.7,142.7,0,0,0,27.75,40.85A26,26,0,0,0,33,190.71"/></g></g></svg>